PathFileType	4	(X/Y/Z)	Patient4_TMGait_0pt3_01_left_18.trc.trc
DataRate	CameraRate	NumFrames	NumMarkers	Units	OrigDataRate	OrigDataStartFrame	OrigNumFrames
50.179211469534	50.179211469534	6	33	mm	50.179211469534	18	       141
Frame#	Time	Sacral			L.Shoulder			Chest			R.Shoulder			Neck			R.ASIS			L.ASIS			R.Thigh.Superior			R.Thigh.Lateral			R.Thigh.Inferior			R.Patella			L.Thigh.Superior			L.Thigh.Lateral			L.Thigh.Inferior			L.Patella			L.Shank.Superior			L.Shank.Lateral			L.Shank.Inferior			R.Shank.Superior			R.Shank.Lateral			R.Shank.Inferior			R.Heel			R.Midfoot.Superior			R.Midfoot.Lateral			R.Toe			L.Heel			L.Midfoot.Lateral			L.Midfoot.Superior			L.Toe			L.Elbow			L.Wrist			R.Elbow			R.Wrist			
		X1	Y1	Z1	X2	Y2	Z2	X3	Y3	Z3	X4	Y4	Z4	X5	Y5	Z5	X6	Y6	Z6	X7	Y7	Z7	X8	Y8	Z8	X9	Y9	Z9	X10	Y10	Z10	X11	Y11	Z11	X12	Y12	Z12	X13	Y13	Z13	X14	Y14	Z14	X15	Y15	Z15	X16	Y16	Z16	X17	Y17	Z17	X18	Y18	Z18	X19	Y19	Z19	X20	Y20	Z20	X21	Y21	Z21	X22	Y22	Z22	X23	Y23	Z23	X24	Y24	Z24	X25	Y25	Z25	X26	Y26	Z26	X27	Y27	Z27	X28	Y28	Z28	X29	Y29	Z29	X30	Y30	Z30	X31	Y31	Z31	X32	Y32	Z32	X33	Y33	Z33	

18	33.798785714286	767.335255625056	1003.635347060276	615.917325958525	928.825762992804	1422.928086978920	404.092326038961	1047.634327195629	1360.978337588622	556.259891485623	984.833046646705	1445.662734782264	733.458047266109	931.214361738661	1491.347676961242	557.937081553468	1004.479935927121	938.188386041050	712.724715242446	968.695893225851	959.122065754620	439.960669810659	1022.923950659067	730.049611940295	673.346606418663	933.621106573326	622.453318709488	730.885210043203	999.779309554826	568.512911361452	644.927201390225	990.376132680984	478.234157777651	645.765650334079	1048.405846412337	774.233641692518	472.168809720453	1004.485918045409	651.234623328286	385.552355430054	1101.625181251465	588.282943818574	452.452819823450	1127.874978670381	519.291271952072	442.769640344923	1100.733812208321	446.938318710998	426.814745577053	1018.589161418518	330.667507786669	365.606801414255	1089.542947289529	216.758982755385	415.662258067128	949.769872129247	393.168505160185	649.196484065490	868.281948475368	295.645534311650	708.842549964604	893.699400103815	200.389114853342	638.335262139032	740.924450725660	44.679245951204	603.682992693614	913.048567148097	96.480596868295	641.842684509578	823.083461820733	37.542861220153	678.984796303306	1031.689230001609	41.117672817097	671.622163107179	981.232087635189	47.096828100038	442.092316518230	1056.529931320412	48.616837022339	363.321388188367	1135.537359712532	116.530960269288	389.825622663709	1265.182578129361	74.679046104862	362.687082095133	790.360354920931	1093.368665490967	322.016521947719	753.157822275334	837.563294359343	340.249141692938	1068.473597357520	1120.580941072013	872.322195365061	1313.336384122317	1137.021109424689	814.880219773124	
19	33.818714285714	767.561018487756	1003.847055576446	615.076518634511	927.244300355219	1422.745072041779	401.457336242878	1047.456346404922	1360.730013532324	552.595471374688	986.208198619768	1445.915165996280	730.053504903782	930.725682793148	1491.108313888490	555.118400492668	1005.054375528689	938.265695564139	710.659113510940	967.871751589401	958.284686616613	438.032305743370	1020.435845724478	729.317229387255	672.067785109273	929.565755716081	622.920213787199	730.371465314842	994.361948892788	567.881167388968	644.443969663424	983.647503191379	478.220197859355	645.450625337279	1046.211285502745	772.028343566614	468.869975099970	999.454661391172	649.249933514027	383.109669060926	1097.098563517244	585.753737693213	448.561754806540	1122.891540321994	517.803209565788	439.541091873174	1097.176923224933	445.811553607454	424.070397948918	1017.494408761155	327.692403327966	363.138648761682	1090.828439114908	215.426088384676	413.467201776244	943.403249695250	393.325282999977	649.063332611576	861.914268016459	295.844079044235	708.857940304173	887.505749538867	200.516902639099	638.360853435857	734.844276684981	44.604558823980	603.695338874674	907.032693714162	96.474399107237	641.855676473231	817.005857893187	37.491409438006	678.994762426619	1025.616616069613	41.129878872779	671.616950805995	985.488315075290	44.788271362964	440.243726474128	1060.895521138920	46.704180942249	361.540492208176	1139.219728277199	115.294794724106	387.970369736846	1269.278253956076	74.489887039364	361.176944408150	783.004063369391	1095.933808169682	321.629024762645	743.546936635967	840.372433710196	340.928912561170	1078.794406708010	1124.212778499918	868.309097346853	1319.576150226658	1157.696690190523	803.218907410246	
20	33.838642857143	767.968649850227	1003.566893388103	614.030318524892	925.731805495313	1422.112164732121	398.439223824661	1047.237833392319	1360.162699600144	548.674635465679	987.312390269987	1445.796772636987	726.328923187254	930.215032296918	1490.506870929023	551.953562145378	1005.864372264398	938.118348351558	708.424723043570	967.191994579957	956.985248360307	435.960985224357	1018.526256513312	728.453898955666	670.638797023706	926.199430611732	623.156777581386	729.663751220313	989.671965784015	567.100610032856	643.757704120680	977.697886873192	477.956754414719	644.922030074945	1044.321823058234	769.423323127588	465.272881817954	994.467345972910	646.738394900435	380.854404856429	1092.949257159711	582.965733990957	444.614616984690	1118.090409641304	515.740055017554	436.357450267798	1093.487345196888	444.053334771670	421.403195795900	1015.367139287115	324.605974656516	361.207237266592	1090.561295286468	213.641809351496	411.565867889947	937.631218688542	393.248456671629	648.742790915016	856.000483873358	295.949588780130	708.745175595862	881.550161353458	200.506245415465	638.293900449052	728.771177171723	44.539511745814	603.694442868638	901.030617977644	96.470131994261	641.852205568350	810.936393290502	37.442504680214	678.999713408519	1019.548869415623	41.133873034602	671.610654053301	987.255007751883	42.850729684373	439.153884691689	1062.439261790572	44.825977684224	360.210993402913	1140.599921051929	113.493771640367	386.342897649414	1270.679636872917	72.962486613252	359.300684961414	777.274959745111	1097.420065793311	320.921736218925	736.593520552299	841.801261889037	341.181370585395	1088.619470774988	1127.520894514526	863.800064407014	1324.365244821140	1176.251707636538	791.716633116842	
21	33.858571428571	768.541320455239	1002.889798833430	612.789986628670	924.289992055688	1421.081470410895	395.038719611139	1047.003036530708	1359.339942049915	544.484756865108	988.206513538437	1445.393185405132	722.279164579445	929.710692273095	1489.609940885803	548.437554958184	1006.880159628289	937.778047374433	706.018738428799	966.635574553884	955.335288478368	433.757405023635	1017.202285295720	727.485902992249	669.046141313526	923.557256049947	623.172563409035	728.736742974614	985.777617741604	566.194969792505	642.843220381232	972.606965662140	477.444858009855	644.161377663836	1042.772443384570	766.608322528344	461.483129006824	989.707045208066	643.892608857135	378.809824201681	1089.320383304568	580.129295926988	440.691217582198	1113.640851392960	513.298114712861	433.280285046421	1089.862039265693	441.817184515051	418.859457428046	1012.471082700486	321.504142862811	359.746440396912	1088.981489529815	211.479993081203	409.969768905089	932.506662869017	392.950777846937	648.222711248701	850.586517738946	295.991377975109	708.507364846043	875.855337188712	200.378399439573	638.139078205339	722.716752398831	44.517822076417	603.691721681731	895.053457141077	96.471667593866	641.841312396011	804.886049237103	37.410190332364	679.002568793758	1013.493912560706	41.116486286417	671.607302848020	986.774222375661	41.242376704593	438.716421374890	1061.483840172227	42.987045480234	359.296265749509	1139.933968522228	111.214598845145	384.989480774534	1269.729688318634	70.272567697884	357.231864441559	773.075728124878	1097.847962741947	319.797375998522	732.291113425744	841.892477730217	340.918583300899	1097.883099130016	1130.529539460864	858.825260129134	1328.010069509046	1192.628622068926	780.437073600178	
22	33.878500000000	769.238403726566	1001.949799105588	611.359968129596	922.922535115224	1419.741988943007	391.278911733862	1046.784190773973	1358.339946241198	540.021367047584	988.980516716917	1444.807004530453	717.910616010457	929.248806608729	1488.508422151289	544.584226742633	1008.055275076038	937.290299104570	703.428588930833	966.167810618202	953.481854231278	431.416405352115	1016.424499627951	726.451718997278	667.266664373443	921.627185728344	622.997995550372	727.567045810766	982.694529804145	565.202425093337	641.678381124302	968.398587252527	476.708853509958	643.157942538896	1041.597633211126	763.819551772341	457.628721461591	985.411189792126	640.956642070022	376.970325537430	1086.361487359287	577.471047295500	436.887622262383	1109.725687894255	510.705425724443	430.376021076857	1086.514644516585	439.302406924505	416.485067299237	1009.138598006929	318.534465338701	358.643844576125	1086.380493427620	209.081837427971	408.673438348587	928.042392889481	392.465488239164	647.498859504743	845.685028918258	296.012768814229	708.149422434549	870.430456534805	200.169826012067	637.904172488389	716.692313176009	44.581002975777	603.697987660975	889.114639595580	96.484560632740	641.831757377238	798.865907159877	37.413033419177	679.006339925955	1007.460042228462	41.064040876215	671.610983578643	984.375639144288	39.953447714917	438.773047547095	1058.460862948547	41.246447024114	358.731321983278	1137.548067147066	108.634271288500	383.937958867336	1266.854565608654	66.735819420690	355.166940793135	770.267810254422	1097.315782682188	318.186384323813	730.609025970867	840.781000323623	340.054267931008	1106.547353459401	1133.280155318146	853.428938795520	1330.818529264428	1206.861654643083	769.422359823212	
23	33.898428571429	770.004669978112	1000.899526375195	609.737528389086	921.634232730474	1418.207998947589	387.203663778559	1046.616420986792	1357.245613122389	535.290533595688	989.740551738020	1444.142947510429	713.242931934115	928.868253451789	1487.305702680132	540.425923436914	1009.331617769999	936.708688903083	700.633328397662	965.745328691963	951.585668393782	428.915509607038	1016.108375948463	725.397545608852	665.272171310229	920.346372444280	622.681953855086	726.137673999509	980.379882239415	564.171542575534	640.249665459506	965.034720641827	475.794360535715	641.912965049653	1040.826401338953	761.307539436291	453.845027628036	981.841606627769	638.191156759329	375.299573110099	1084.205601142032	575.198509718158	433.305333675307	1106.517830725022	508.187922934863	427.706604149501	1083.646247146635	436.722869733867	414.319846047808	1005.722552559839	315.864240978492	357.762048798370	1083.068100819899	206.624174038090	407.657704102277	924.207033765589	391.843036072106	646.577236243693	841.271713710269	296.065933744772	707.678077982403	865.269341868429	199.928287167905	637.600252627936	710.707805263973	44.774432730723	603.722794404127	883.228274815009	96.515399626404	641.830816030187	792.885847240594	37.472694088452	679.014474997417	1001.455168743846	40.964406129551	671.625354923758	980.445577439347	38.983450245140	439.145225828001	1053.860543107798	39.688033774646	358.436108165269	1133.804619960160	105.980877012634	383.191878189412	1262.518218566556	62.753397276631	353.285163940829	768.683251430372	1095.982204444986	316.055236522382	731.484769687604	838.676953980954	338.511077938733	1114.605803111636	1135.822336477054	847.667939466283	1333.086065403973	1219.056860304036	758.700304798599	
